<svg width="36" height="37" viewBox="0 0 36 37" fill="none" xmlns="http://www.w3.org/2000/svg">
<path fill-rule="evenodd" clip-rule="evenodd" d="M18.0934 0.758423C13.871 0.760665 9.78703 2.29145 6.57178 5.07705C3.35654 7.86266 1.21966 11.7214 0.543257 15.9634C-0.133152 20.2054 0.695006 24.5539 2.87966 28.2314C5.06432 31.909 8.46301 34.6757 12.468 36.0369C13.3516 36.2048 13.6844 35.6442 13.6844 35.1676C13.6844 34.691 13.6667 33.3091 13.6608 31.7983C8.71284 32.8924 7.66729 29.6611 7.66729 29.6611C6.8603 27.5628 5.69399 27.0112 5.69399 27.0112C4.08 25.8901 5.81475 25.9111 5.81475 25.9111C7.6025 26.04 8.54203 27.7786 8.54203 27.7786C10.1266 30.5453 12.7036 29.745 13.7168 29.2774C13.8758 28.1053 14.3382 27.308 14.8478 26.8553C10.8953 26.3997 6.74249 24.847 6.74249 17.9106C6.71799 16.1116 7.37388 14.372 8.57443 13.0515C8.39182 12.5959 7.78215 10.7553 8.74819 8.25537C8.74819 8.25537 10.2414 7.76976 13.6402 10.1109C16.5555 9.29946 19.6313 9.29946 22.5466 10.1109C25.9424 7.76976 27.4327 8.25537 27.4327 8.25537C28.4017 10.7493 27.792 12.5899 27.6094 13.0515C28.8138 14.3722 29.471 16.1149 29.4443 17.9166C29.4443 24.8679 25.2827 26.3997 21.3243 26.8463C21.9605 27.4099 22.5289 28.51 22.5289 30.2006C22.5289 32.6227 22.5083 34.5711 22.5083 35.1676C22.5083 35.6502 22.8293 36.2138 23.7306 36.0369C27.736 34.6755 31.135 31.9083 33.3197 28.2301C35.5043 24.552 36.332 20.2028 35.6548 15.9604C34.9777 11.7181 32.8397 7.85927 29.6234 5.07414C26.4071 2.28902 22.3222 0.759244 18.0993 0.758423H18.0934Z" fill="#191717"/>
</svg>
